<mxfile host="Electron" agent="Mozilla/5.0 (Macintosh; Intel Mac OS X 10_15_7) AppleWebKit/537.36 (KHTML, like Gecko) draw.io/27.0.5 Chrome/134.0.6998.205 Electron/35.3.0 Safari/537.36" version="27.0.5">
  <diagram id="C5RBs43oDa-KdzZeNtuy" name="Page-1">
    <mxGraphModel dx="1183" dy="776" grid="1" gridSize="10" guides="1" tooltips="1" connect="1" arrows="1" fold="1" page="1" pageScale="1" pageWidth="827" pageHeight="1169" math="0" shadow="0">
      <root>
        <mxCell id="WIyWlLk6GJQsqaUBKTNV-0" />
        <mxCell id="WIyWlLk6GJQsqaUBKTNV-1" parent="WIyWlLk6GJQsqaUBKTNV-0" />
        <mxCell id="ZpBUjElCxxWPWs5gjXq1-1" value="ConditionChecker&lt;div&gt;&amp;lt; Interface &amp;gt;&lt;/div&gt;" style="swimlane;fontStyle=0;childLayout=stackLayout;horizontal=1;startSize=30;horizontalStack=0;resizeParent=1;resizeParentMax=0;resizeLast=0;collapsible=1;marginBottom=0;whiteSpace=wrap;html=1;" vertex="1" parent="WIyWlLk6GJQsqaUBKTNV-1">
          <mxGeometry x="120" y="160" width="140" height="60" as="geometry" />
        </mxCell>
        <mxCell id="ZpBUjElCxxWPWs5gjXq1-2" value="check()" style="text;strokeColor=none;fillColor=none;align=left;verticalAlign=middle;spacingLeft=4;spacingRight=4;overflow=hidden;points=[[0,0.5],[1,0.5]];portConstraint=eastwest;rotatable=0;whiteSpace=wrap;html=1;" vertex="1" parent="ZpBUjElCxxWPWs5gjXq1-1">
          <mxGeometry y="30" width="140" height="30" as="geometry" />
        </mxCell>
        <mxCell id="ZpBUjElCxxWPWs5gjXq1-6" value="UserAction&lt;div&gt;&amp;lt; Type &amp;gt;&lt;/div&gt;" style="swimlane;fontStyle=0;childLayout=stackLayout;horizontal=1;startSize=30;horizontalStack=0;resizeParent=1;resizeParentMax=0;resizeLast=0;collapsible=1;marginBottom=0;whiteSpace=wrap;html=1;" vertex="1" parent="WIyWlLk6GJQsqaUBKTNV-1">
          <mxGeometry x="290" y="160" width="190" height="60" as="geometry" />
        </mxCell>
        <mxCell id="ZpBUjElCxxWPWs5gjXq1-7" value="userActionType: UserActionType" style="text;strokeColor=none;fillColor=none;align=left;verticalAlign=middle;spacingLeft=4;spacingRight=4;overflow=hidden;points=[[0,0.5],[1,0.5]];portConstraint=eastwest;rotatable=0;whiteSpace=wrap;html=1;" vertex="1" parent="ZpBUjElCxxWPWs5gjXq1-6">
          <mxGeometry y="30" width="190" height="30" as="geometry" />
        </mxCell>
        <mxCell id="ZpBUjElCxxWPWs5gjXq1-11" value="Metadata&lt;div&gt;&amp;lt; Type &amp;gt;&lt;/div&gt;" style="swimlane;fontStyle=0;childLayout=stackLayout;horizontal=1;startSize=30;horizontalStack=0;resizeParent=1;resizeParentMax=0;resizeLast=0;collapsible=1;marginBottom=0;whiteSpace=wrap;html=1;" vertex="1" parent="WIyWlLk6GJQsqaUBKTNV-1">
          <mxGeometry x="510" y="160" width="180" height="60" as="geometry" />
        </mxCell>
        <mxCell id="ZpBUjElCxxWPWs5gjXq1-14" value="metadata: Record&amp;lt;string, any&amp;gt;" style="text;strokeColor=none;fillColor=none;align=left;verticalAlign=middle;spacingLeft=4;spacingRight=4;overflow=hidden;points=[[0,0.5],[1,0.5]];portConstraint=eastwest;rotatable=0;whiteSpace=wrap;html=1;" vertex="1" parent="ZpBUjElCxxWPWs5gjXq1-11">
          <mxGeometry y="30" width="180" height="30" as="geometry" />
        </mxCell>
        <mxCell id="ZpBUjElCxxWPWs5gjXq1-20" style="edgeStyle=orthogonalEdgeStyle;rounded=0;orthogonalLoop=1;jettySize=auto;html=1;dashed=1;" edge="1" parent="WIyWlLk6GJQsqaUBKTNV-1" source="ZpBUjElCxxWPWs5gjXq1-15" target="ZpBUjElCxxWPWs5gjXq1-6">
          <mxGeometry relative="1" as="geometry" />
        </mxCell>
        <mxCell id="ZpBUjElCxxWPWs5gjXq1-21" style="edgeStyle=orthogonalEdgeStyle;rounded=0;orthogonalLoop=1;jettySize=auto;html=1;dashed=1;" edge="1" parent="WIyWlLk6GJQsqaUBKTNV-1" source="ZpBUjElCxxWPWs5gjXq1-15" target="ZpBUjElCxxWPWs5gjXq1-11">
          <mxGeometry relative="1" as="geometry" />
        </mxCell>
        <mxCell id="ZpBUjElCxxWPWs5gjXq1-15" value="UserActionMetadata&lt;div&gt;&amp;lt; Interface &amp;gt;&lt;/div&gt;" style="swimlane;fontStyle=0;childLayout=stackLayout;horizontal=1;startSize=30;horizontalStack=0;resizeParent=1;resizeParentMax=0;resizeLast=0;collapsible=1;marginBottom=0;whiteSpace=wrap;html=1;" vertex="1" parent="WIyWlLk6GJQsqaUBKTNV-1">
          <mxGeometry x="420" y="290" width="140" height="60" as="geometry" />
        </mxCell>
        <mxCell id="ZpBUjElCxxWPWs5gjXq1-22" value="UserLog&lt;div&gt;&amp;lt; Abstract class &amp;gt;&lt;/div&gt;" style="swimlane;fontStyle=0;childLayout=stackLayout;horizontal=1;startSize=30;horizontalStack=0;resizeParent=1;resizeParentMax=0;resizeLast=0;collapsible=1;marginBottom=0;whiteSpace=wrap;html=1;" vertex="1" parent="WIyWlLk6GJQsqaUBKTNV-1">
          <mxGeometry x="610" y="280" width="140" height="120" as="geometry" />
        </mxCell>
        <mxCell id="ZpBUjElCxxWPWs5gjXq1-23" value="userId: string" style="text;strokeColor=none;fillColor=none;align=left;verticalAlign=middle;spacingLeft=4;spacingRight=4;overflow=hidden;points=[[0,0.5],[1,0.5]];portConstraint=eastwest;rotatable=0;whiteSpace=wrap;html=1;" vertex="1" parent="ZpBUjElCxxWPWs5gjXq1-22">
          <mxGeometry y="30" width="140" height="30" as="geometry" />
        </mxCell>
        <mxCell id="ZpBUjElCxxWPWs5gjXq1-24" value="createdAt: string" style="text;strokeColor=none;fillColor=none;align=left;verticalAlign=middle;spacingLeft=4;spacingRight=4;overflow=hidden;points=[[0,0.5],[1,0.5]];portConstraint=eastwest;rotatable=0;whiteSpace=wrap;html=1;" vertex="1" parent="ZpBUjElCxxWPWs5gjXq1-22">
          <mxGeometry y="60" width="140" height="30" as="geometry" />
        </mxCell>
        <mxCell id="ZpBUjElCxxWPWs5gjXq1-25" value="updatedAt: string" style="text;strokeColor=none;fillColor=none;align=left;verticalAlign=middle;spacingLeft=4;spacingRight=4;overflow=hidden;points=[[0,0.5],[1,0.5]];portConstraint=eastwest;rotatable=0;whiteSpace=wrap;html=1;" vertex="1" parent="ZpBUjElCxxWPWs5gjXq1-22">
          <mxGeometry y="90" width="140" height="30" as="geometry" />
        </mxCell>
        <mxCell id="ZpBUjElCxxWPWs5gjXq1-35" value="" style="group" vertex="1" connectable="0" parent="WIyWlLk6GJQsqaUBKTNV-1">
          <mxGeometry x="290" y="390" width="160" height="120" as="geometry" />
        </mxCell>
        <mxCell id="ZpBUjElCxxWPWs5gjXq1-26" value="ItemUserActionLog&lt;div&gt;&amp;lt; Class &amp;gt;&lt;/div&gt;" style="swimlane;fontStyle=0;childLayout=stackLayout;horizontal=1;startSize=30;horizontalStack=0;resizeParent=1;resizeParentMax=0;resizeLast=0;collapsible=1;marginBottom=0;whiteSpace=wrap;html=1;" vertex="1" parent="ZpBUjElCxxWPWs5gjXq1-35">
          <mxGeometry width="160" height="60" as="geometry" />
        </mxCell>
        <mxCell id="ZpBUjElCxxWPWs5gjXq1-30" value="AttendanceUserActionLog&lt;div&gt;&amp;lt; Class &amp;gt;&lt;/div&gt;" style="swimlane;fontStyle=0;childLayout=stackLayout;horizontal=1;startSize=30;horizontalStack=0;resizeParent=1;resizeParentMax=0;resizeLast=0;collapsible=1;marginBottom=0;whiteSpace=wrap;html=1;" vertex="1" parent="ZpBUjElCxxWPWs5gjXq1-35">
          <mxGeometry y="15" width="160" height="60" as="geometry" />
        </mxCell>
        <mxCell id="ZpBUjElCxxWPWs5gjXq1-31" value="Level&lt;span style=&quot;background-color: transparent; color: light-dark(rgb(0, 0, 0), rgb(255, 255, 255));&quot;&gt;UserActionLog&lt;/span&gt;&lt;div&gt;&lt;div&gt;&amp;lt; Class &amp;gt;&lt;/div&gt;&lt;/div&gt;" style="swimlane;fontStyle=0;childLayout=stackLayout;horizontal=1;startSize=30;horizontalStack=0;resizeParent=1;resizeParentMax=0;resizeLast=0;collapsible=1;marginBottom=0;whiteSpace=wrap;html=1;" vertex="1" parent="ZpBUjElCxxWPWs5gjXq1-35">
          <mxGeometry y="30" width="160" height="60" as="geometry" />
        </mxCell>
        <mxCell id="ZpBUjElCxxWPWs5gjXq1-32" value="FriendUserActionLog&lt;div&gt;&amp;lt; Class &amp;gt;&lt;/div&gt;" style="swimlane;fontStyle=0;childLayout=stackLayout;horizontal=1;startSize=30;horizontalStack=0;resizeParent=1;resizeParentMax=0;resizeLast=0;collapsible=1;marginBottom=0;whiteSpace=wrap;html=1;" vertex="1" parent="ZpBUjElCxxWPWs5gjXq1-35">
          <mxGeometry y="45" width="160" height="60" as="geometry" />
        </mxCell>
        <mxCell id="ZpBUjElCxxWPWs5gjXq1-33" value="QuestUserActionLog&lt;div&gt;&amp;lt; Class &amp;gt;&lt;/div&gt;" style="swimlane;fontStyle=0;childLayout=stackLayout;horizontal=1;startSize=30;horizontalStack=0;resizeParent=1;resizeParentMax=0;resizeLast=0;collapsible=1;marginBottom=0;whiteSpace=wrap;html=1;" vertex="1" parent="ZpBUjElCxxWPWs5gjXq1-35">
          <mxGeometry y="60" width="160" height="60" as="geometry" />
        </mxCell>
        <mxCell id="ZpBUjElCxxWPWs5gjXq1-42" style="edgeStyle=orthogonalEdgeStyle;rounded=0;orthogonalLoop=1;jettySize=auto;html=1;dashed=1;" edge="1" parent="WIyWlLk6GJQsqaUBKTNV-1" source="ZpBUjElCxxWPWs5gjXq1-38" target="ZpBUjElCxxWPWs5gjXq1-1">
          <mxGeometry relative="1" as="geometry" />
        </mxCell>
        <mxCell id="ZpBUjElCxxWPWs5gjXq1-43" style="edgeStyle=orthogonalEdgeStyle;rounded=0;orthogonalLoop=1;jettySize=auto;html=1;dashed=1;" edge="1" parent="WIyWlLk6GJQsqaUBKTNV-1" source="ZpBUjElCxxWPWs5gjXq1-38" target="ZpBUjElCxxWPWs5gjXq1-15">
          <mxGeometry relative="1" as="geometry" />
        </mxCell>
        <mxCell id="ZpBUjElCxxWPWs5gjXq1-38" value="Condition&lt;div&gt;&amp;lt; Class &amp;gt;&lt;/div&gt;" style="swimlane;fontStyle=0;childLayout=stackLayout;horizontal=1;startSize=30;horizontalStack=0;resizeParent=1;resizeParentMax=0;resizeLast=0;collapsible=1;marginBottom=0;whiteSpace=wrap;html=1;" vertex="1" parent="WIyWlLk6GJQsqaUBKTNV-1">
          <mxGeometry x="120" y="290" width="140" height="60" as="geometry" />
        </mxCell>
        <mxCell id="ZpBUjElCxxWPWs5gjXq1-48" style="edgeStyle=orthogonalEdgeStyle;rounded=0;orthogonalLoop=1;jettySize=auto;html=1;" edge="1" parent="WIyWlLk6GJQsqaUBKTNV-1" source="ZpBUjElCxxWPWs5gjXq1-44" target="ZpBUjElCxxWPWs5gjXq1-38">
          <mxGeometry relative="1" as="geometry" />
        </mxCell>
        <mxCell id="ZpBUjElCxxWPWs5gjXq1-44" value="Event&lt;div&gt;&amp;lt; Class &amp;gt;&lt;/div&gt;" style="swimlane;fontStyle=0;childLayout=stackLayout;horizontal=1;startSize=30;horizontalStack=0;resizeParent=1;resizeParentMax=0;resizeLast=0;collapsible=1;marginBottom=0;whiteSpace=wrap;html=1;" vertex="1" parent="WIyWlLk6GJQsqaUBKTNV-1">
          <mxGeometry x="120" y="400" width="140" height="120" as="geometry" />
        </mxCell>
        <mxCell id="ZpBUjElCxxWPWs5gjXq1-45" value="startAt: string" style="text;strokeColor=none;fillColor=none;align=left;verticalAlign=middle;spacingLeft=4;spacingRight=4;overflow=hidden;points=[[0,0.5],[1,0.5]];portConstraint=eastwest;rotatable=0;whiteSpace=wrap;html=1;" vertex="1" parent="ZpBUjElCxxWPWs5gjXq1-44">
          <mxGeometry y="30" width="140" height="30" as="geometry" />
        </mxCell>
        <mxCell id="ZpBUjElCxxWPWs5gjXq1-46" value="endAt: string" style="text;strokeColor=none;fillColor=none;align=left;verticalAlign=middle;spacingLeft=4;spacingRight=4;overflow=hidden;points=[[0,0.5],[1,0.5]];portConstraint=eastwest;rotatable=0;whiteSpace=wrap;html=1;" vertex="1" parent="ZpBUjElCxxWPWs5gjXq1-44">
          <mxGeometry y="60" width="140" height="30" as="geometry" />
        </mxCell>
        <mxCell id="ZpBUjElCxxWPWs5gjXq1-47" value="activated: boolean" style="text;strokeColor=none;fillColor=none;align=left;verticalAlign=middle;spacingLeft=4;spacingRight=4;overflow=hidden;points=[[0,0.5],[1,0.5]];portConstraint=eastwest;rotatable=0;whiteSpace=wrap;html=1;" vertex="1" parent="ZpBUjElCxxWPWs5gjXq1-44">
          <mxGeometry y="90" width="140" height="30" as="geometry" />
        </mxCell>
        <mxCell id="ZpBUjElCxxWPWs5gjXq1-65" style="edgeStyle=orthogonalEdgeStyle;rounded=0;orthogonalLoop=1;jettySize=auto;html=1;" edge="1" parent="WIyWlLk6GJQsqaUBKTNV-1" source="ZpBUjElCxxWPWs5gjXq1-55" target="ZpBUjElCxxWPWs5gjXq1-44">
          <mxGeometry relative="1" as="geometry" />
        </mxCell>
        <mxCell id="ZpBUjElCxxWPWs5gjXq1-66" style="edgeStyle=orthogonalEdgeStyle;rounded=0;orthogonalLoop=1;jettySize=auto;html=1;" edge="1" parent="WIyWlLk6GJQsqaUBKTNV-1" source="ZpBUjElCxxWPWs5gjXq1-55" target="ZpBUjElCxxWPWs5gjXq1-59">
          <mxGeometry relative="1" as="geometry" />
        </mxCell>
        <mxCell id="ZpBUjElCxxWPWs5gjXq1-55" value="Mapper&lt;div&gt;&amp;lt; Class &amp;gt;&lt;/div&gt;" style="swimlane;fontStyle=0;childLayout=stackLayout;horizontal=1;startSize=30;horizontalStack=0;resizeParent=1;resizeParentMax=0;resizeLast=0;collapsible=1;marginBottom=0;whiteSpace=wrap;html=1;" vertex="1" parent="WIyWlLk6GJQsqaUBKTNV-1">
          <mxGeometry x="120" y="560" width="140" height="90" as="geometry" />
        </mxCell>
        <mxCell id="ZpBUjElCxxWPWs5gjXq1-56" value="static toDomain()" style="text;strokeColor=none;fillColor=none;align=left;verticalAlign=middle;spacingLeft=4;spacingRight=4;overflow=hidden;points=[[0,0.5],[1,0.5]];portConstraint=eastwest;rotatable=0;whiteSpace=wrap;html=1;" vertex="1" parent="ZpBUjElCxxWPWs5gjXq1-55">
          <mxGeometry y="30" width="140" height="30" as="geometry" />
        </mxCell>
        <mxCell id="ZpBUjElCxxWPWs5gjXq1-57" value="static toEntity()" style="text;strokeColor=none;fillColor=none;align=left;verticalAlign=middle;spacingLeft=4;spacingRight=4;overflow=hidden;points=[[0,0.5],[1,0.5]];portConstraint=eastwest;rotatable=0;whiteSpace=wrap;html=1;" vertex="1" parent="ZpBUjElCxxWPWs5gjXq1-55">
          <mxGeometry y="60" width="140" height="30" as="geometry" />
        </mxCell>
        <mxCell id="ZpBUjElCxxWPWs5gjXq1-59" value="EventSchema&lt;div&gt;&amp;lt; Schema &amp;gt;&lt;/div&gt;" style="swimlane;fontStyle=0;childLayout=stackLayout;horizontal=1;startSize=30;horizontalStack=0;resizeParent=1;resizeParentMax=0;resizeLast=0;collapsible=1;marginBottom=0;whiteSpace=wrap;html=1;" vertex="1" parent="WIyWlLk6GJQsqaUBKTNV-1">
          <mxGeometry x="120" y="680" width="240" height="180" as="geometry" />
        </mxCell>
        <mxCell id="ZpBUjElCxxWPWs5gjXq1-60" value="type: UserActionType" style="text;strokeColor=none;fillColor=none;align=left;verticalAlign=middle;spacingLeft=4;spacingRight=4;overflow=hidden;points=[[0,0.5],[1,0.5]];portConstraint=eastwest;rotatable=0;whiteSpace=wrap;html=1;" vertex="1" parent="ZpBUjElCxxWPWs5gjXq1-59">
          <mxGeometry y="30" width="240" height="30" as="geometry" />
        </mxCell>
        <mxCell id="ZpBUjElCxxWPWs5gjXq1-61" value="metadata: Record&amp;lt;string, any&amp;gt;" style="text;strokeColor=none;fillColor=none;align=left;verticalAlign=middle;spacingLeft=4;spacingRight=4;overflow=hidden;points=[[0,0.5],[1,0.5]];portConstraint=eastwest;rotatable=0;whiteSpace=wrap;html=1;" vertex="1" parent="ZpBUjElCxxWPWs5gjXq1-59">
          <mxGeometry y="60" width="240" height="30" as="geometry" />
        </mxCell>
        <mxCell id="ZpBUjElCxxWPWs5gjXq1-64" value="startAt: string" style="text;strokeColor=none;fillColor=none;align=left;verticalAlign=middle;spacingLeft=4;spacingRight=4;overflow=hidden;points=[[0,0.5],[1,0.5]];portConstraint=eastwest;rotatable=0;whiteSpace=wrap;html=1;" vertex="1" parent="ZpBUjElCxxWPWs5gjXq1-59">
          <mxGeometry y="90" width="240" height="30" as="geometry" />
        </mxCell>
        <mxCell id="ZpBUjElCxxWPWs5gjXq1-63" value="endAt: string" style="text;strokeColor=none;fillColor=none;align=left;verticalAlign=middle;spacingLeft=4;spacingRight=4;overflow=hidden;points=[[0,0.5],[1,0.5]];portConstraint=eastwest;rotatable=0;whiteSpace=wrap;html=1;" vertex="1" parent="ZpBUjElCxxWPWs5gjXq1-59">
          <mxGeometry y="120" width="240" height="30" as="geometry" />
        </mxCell>
        <mxCell id="ZpBUjElCxxWPWs5gjXq1-62" value="activated: string" style="text;strokeColor=none;fillColor=none;align=left;verticalAlign=middle;spacingLeft=4;spacingRight=4;overflow=hidden;points=[[0,0.5],[1,0.5]];portConstraint=eastwest;rotatable=0;whiteSpace=wrap;html=1;" vertex="1" parent="ZpBUjElCxxWPWs5gjXq1-59">
          <mxGeometry y="150" width="240" height="30" as="geometry" />
        </mxCell>
        <mxCell id="ZpBUjElCxxWPWs5gjXq1-76" style="edgeStyle=orthogonalEdgeStyle;rounded=0;orthogonalLoop=1;jettySize=auto;html=1;" edge="1" parent="WIyWlLk6GJQsqaUBKTNV-1" source="ZpBUjElCxxWPWs5gjXq1-67" target="ZpBUjElCxxWPWs5gjXq1-33">
          <mxGeometry relative="1" as="geometry" />
        </mxCell>
        <mxCell id="ZpBUjElCxxWPWs5gjXq1-77" style="edgeStyle=orthogonalEdgeStyle;rounded=0;orthogonalLoop=1;jettySize=auto;html=1;" edge="1" parent="WIyWlLk6GJQsqaUBKTNV-1" source="ZpBUjElCxxWPWs5gjXq1-67" target="ZpBUjElCxxWPWs5gjXq1-70">
          <mxGeometry relative="1" as="geometry" />
        </mxCell>
        <mxCell id="ZpBUjElCxxWPWs5gjXq1-67" value="Mapper&lt;div&gt;&amp;lt; Class &amp;gt;&lt;/div&gt;" style="swimlane;fontStyle=0;childLayout=stackLayout;horizontal=1;startSize=30;horizontalStack=0;resizeParent=1;resizeParentMax=0;resizeLast=0;collapsible=1;marginBottom=0;whiteSpace=wrap;html=1;" vertex="1" parent="WIyWlLk6GJQsqaUBKTNV-1">
          <mxGeometry x="300" y="550" width="140" height="90" as="geometry" />
        </mxCell>
        <mxCell id="ZpBUjElCxxWPWs5gjXq1-68" value="static toDomain()" style="text;strokeColor=none;fillColor=none;align=left;verticalAlign=middle;spacingLeft=4;spacingRight=4;overflow=hidden;points=[[0,0.5],[1,0.5]];portConstraint=eastwest;rotatable=0;whiteSpace=wrap;html=1;" vertex="1" parent="ZpBUjElCxxWPWs5gjXq1-67">
          <mxGeometry y="30" width="140" height="30" as="geometry" />
        </mxCell>
        <mxCell id="ZpBUjElCxxWPWs5gjXq1-69" value="static toEntity()" style="text;strokeColor=none;fillColor=none;align=left;verticalAlign=middle;spacingLeft=4;spacingRight=4;overflow=hidden;points=[[0,0.5],[1,0.5]];portConstraint=eastwest;rotatable=0;whiteSpace=wrap;html=1;" vertex="1" parent="ZpBUjElCxxWPWs5gjXq1-67">
          <mxGeometry y="60" width="140" height="30" as="geometry" />
        </mxCell>
        <mxCell id="ZpBUjElCxxWPWs5gjXq1-70" value="UserActionLogSchema&lt;div&gt;&amp;lt; Schema &amp;gt;&lt;/div&gt;" style="swimlane;fontStyle=0;childLayout=stackLayout;horizontal=1;startSize=30;horizontalStack=0;resizeParent=1;resizeParentMax=0;resizeLast=0;collapsible=1;marginBottom=0;whiteSpace=wrap;html=1;" vertex="1" parent="WIyWlLk6GJQsqaUBKTNV-1">
          <mxGeometry x="490" y="535" width="240" height="120" as="geometry" />
        </mxCell>
        <mxCell id="ZpBUjElCxxWPWs5gjXq1-71" value="type: UserActionType" style="text;strokeColor=none;fillColor=none;align=left;verticalAlign=middle;spacingLeft=4;spacingRight=4;overflow=hidden;points=[[0,0.5],[1,0.5]];portConstraint=eastwest;rotatable=0;whiteSpace=wrap;html=1;" vertex="1" parent="ZpBUjElCxxWPWs5gjXq1-70">
          <mxGeometry y="30" width="240" height="30" as="geometry" />
        </mxCell>
        <mxCell id="ZpBUjElCxxWPWs5gjXq1-73" value="userId: string" style="text;strokeColor=none;fillColor=none;align=left;verticalAlign=middle;spacingLeft=4;spacingRight=4;overflow=hidden;points=[[0,0.5],[1,0.5]];portConstraint=eastwest;rotatable=0;whiteSpace=wrap;html=1;" vertex="1" parent="ZpBUjElCxxWPWs5gjXq1-70">
          <mxGeometry y="60" width="240" height="30" as="geometry" />
        </mxCell>
        <mxCell id="ZpBUjElCxxWPWs5gjXq1-72" value="metadata: Record&amp;lt;string, any&amp;gt;" style="text;strokeColor=none;fillColor=none;align=left;verticalAlign=middle;spacingLeft=4;spacingRight=4;overflow=hidden;points=[[0,0.5],[1,0.5]];portConstraint=eastwest;rotatable=0;whiteSpace=wrap;html=1;" vertex="1" parent="ZpBUjElCxxWPWs5gjXq1-70">
          <mxGeometry y="90" width="240" height="30" as="geometry" />
        </mxCell>
        <mxCell id="ZpBUjElCxxWPWs5gjXq1-78" style="edgeStyle=orthogonalEdgeStyle;rounded=0;orthogonalLoop=1;jettySize=auto;html=1;dashed=1;" edge="1" parent="WIyWlLk6GJQsqaUBKTNV-1" source="ZpBUjElCxxWPWs5gjXq1-31" target="ZpBUjElCxxWPWs5gjXq1-22">
          <mxGeometry relative="1" as="geometry" />
        </mxCell>
        <mxCell id="ZpBUjElCxxWPWs5gjXq1-79" style="edgeStyle=orthogonalEdgeStyle;rounded=0;orthogonalLoop=1;jettySize=auto;html=1;dashed=1;" edge="1" parent="WIyWlLk6GJQsqaUBKTNV-1" source="ZpBUjElCxxWPWs5gjXq1-26" target="ZpBUjElCxxWPWs5gjXq1-15">
          <mxGeometry relative="1" as="geometry" />
        </mxCell>
      </root>
    </mxGraphModel>
  </diagram>
</mxfile>
